<?xml version="1.0" encoding="utf-8"?>
<!-- Svg Vector Icons : http://www.onlinewebfonts.com/icon -->
<!DOCTYPE svg PUBLIC "-//W3C//DTD SVG 1.1//EN" "http://www.w3.org/Graphics/SVG/1.1/DTD/svg11.dtd">
<svg version="1.1" xmlns="http://www.w3.org/2000/svg" xmlns:xlink="http://www.w3.org/1999/xlink" x="0px" y="0px" viewBox="0 0 256 256" enable-background="new 0 0 256 256" xml:space="preserve">
<metadata> Svg Vector Icons : http://www.onlinewebfonts.com/icon </metadata>
<g><g><g><path fill="#000000" d="M122.8,23.7c-4.7,1-10.4,4.2-13.8,7.5c-2.2,2.3-7.5,11-26.9,44.4c-13.2,22.9-34.4,59.3-47,81c-20.3,34.8-23,39.9-24,43.7c-1.3,4.8-1.3,7.1-0.5,11.3c1.4,7.2,6.8,14.6,13.1,17.9c6.5,3.5,1.5,3.3,104.9,3.3c67.7,0,95-0.2,97.1-0.6c12.7-2.7,21.9-15.5,20.2-28.1c-0.3-2.2-1-5.1-1.5-6.4c-1.8-4.5-94.4-163.5-96.8-166.1C141.4,24.9,131.5,21.7,122.8,23.7z M136.3,64.5c6,1.4,15.9,7.4,20.9,12.8c2.2,2.4,4.3,7.4,5.2,12.7c0.9,5.1,0.7,7.9-1.2,16.5c-0.8,3.4-0.8,4.8-0.3,8.1c0.9,6.3,0.8,7.8-1.4,12c-2.2,4.5-3.7,5.9-6.8,6.4l-2.2,0.4l0.4,3.2c0.3,2.8,0.2,3.6-1,5.9c-0.8,1.4-2.4,4.8-3.6,7.3c-4,8.5-9.3,12-18.1,12c-8.8,0-14.1-3.5-18.1-12c-1.3-2.6-2.8-5.7-3.4-6.9c-0.7-1.3-1.3-3.7-1.4-5.7l-0.3-3.6l-2.5-0.9c-3-1.1-5.4-4-7.1-8.4c-1-2.7-1.1-3.5-0.6-6.5c0.8-5.1,0.7-8.5-0.6-13.9c-2.1-8.7-0.8-18.5,3.2-24.4C105.6,67.6,122.2,61.2,136.3,64.5z M175.7,154c0.8,0.5,1.6,1.3,2,1.8c0.8,1.1,0.9,4.4,0.2,6.3c-0.4,1.1-0.3,1.8,0.4,2.9c2.3,3.3,1.8,6.6-1.6,10.2c-2.6,2.8-4.2,3.3-8,2.2c-2.5-0.7-3.3-0.7-6,0c-3.4,0.9-13.2,4-14.1,4.5c-0.3,0.2,3,1.5,7.3,2.9l7.8,2.6l2-1.4c2.5-1.8,5.4-1.5,8.2,0.8c4.5,3.6,5.5,7.2,3.1,10.8l-1.4,2l1.8,2.8c4.1,6.4,0.8,13-6.6,13c-5.4,0-7.9-2.5-8.3-8.2l-0.3-3.6l-7.4-3.2c-4-1.8-11.8-5-17.3-7.3l-9.9-4.1l-10.6,4.3c-5.9,2.4-13.7,5.6-17.4,7.3l-6.8,3l-0.2,3.2c-0.2,5.5-3.2,8.5-8.2,8.5c-4.3,0-7.3-1.9-8.4-5.3c-0.8-2.5-0.3-4.9,1.8-8l1.6-2.5l-1.5-2.1c-2-3-1.6-6.1,1.2-9c3.8-3.9,6.9-4.6,10.2-2.5l1.9,1.3l7.8-2.6c4.3-1.4,7.6-2.7,7.3-2.9c-0.8-0.4-8.8-3-13.2-4.2c-3.6-1-4.2-1-6.8-0.3c-3.8,1-5.6,0.5-8.1-2.2c-3.4-3.7-3.9-6.9-1.6-10.2c0.8-1.1,0.9-1.8,0.4-2.9c-0.3-0.8-0.5-2.4-0.5-3.5c0-5.4,8.6-8.1,14.3-4.5c2.4,1.5,6.5,5.9,6.5,6.8c0,0.5,12.7,6.7,23.4,11.4l6.7,2.9l6.7-2.9c10.8-4.8,23.4-10.8,23.4-11.4c0-0.9,4.3-5.5,6.4-6.7C167.6,151.9,172.4,151.8,175.7,154z"/><path fill="#000000" d="M111.7,104.1c-1.6,0.8-3.6,1.8-4.3,2.1c-3.6,1.7-4.8,7.5-2.5,12.1c1.6,3.2,3.9,4.3,8.7,3.9c9.1-0.6,13.9-4.8,12.3-10.8c-0.9-3.6-2.9-6.2-5.6-7.5C117.2,102.4,115.4,102.4,111.7,104.1z"/><path fill="#000000" d="M135.1,105.1c-3.8,2.4-6,7.1-4.6,10.3c1.1,2.7,5.9,6.7,8.9,7.5c7.5,1.9,15.2-5.7,12.9-12.8c-0.7-2.2-3.2-4.1-5.4-4.1c-0.7,0-1.9-0.5-2.7-1.1C142.1,103.3,137.8,103.4,135.1,105.1z"/><path fill="#000000" d="M125.1,120.9c-1.6,0.9-2.4,2.1-2.7,4.5c-0.2,1.2-0.8,3.3-1.3,4.8c-1.6,4.9,0.9,7.7,6.9,7.7c5.6,0,8.8-3.1,7.2-6.9c-0.4-0.9-1-3.2-1.4-5c-0.9-4-2.6-5.7-5.6-5.7C127.1,120.2,125.7,120.5,125.1,120.9z"/><path fill="#000000" d="M119.8,142.9c-0.4,1-0.5,1.9-0.1,2.9l0.5,1.5l7.9,0.2c8.6,0.2,9.4-0.1,9.4-2.8c0-2.9-0.5-3.1-9.1-3.1h-7.8L119.8,142.9z"/></g></g></g>
</svg>